<?xml version="1.0" encoding="UTF-8"?>
<svg version="1.1" xmlns="http://www.w3.org/2000/svg" width="1920" height="205">
<path d="M0 0 C1.02814316 0.00222061 2.05628632 0.00444122 3.11558533 0.00672913 C4.27671341 0.00680466 5.43784149 0.00688019 6.63415527 0.00695801 C8.52943214 0.01469994 8.52943214 0.01469994 10.46299744 0.02259827 C12.39193092 0.02472069 12.39193092 0.02472069 14.35983276 0.02688599 C17.78427561 0.03071034 21.20867628 0.0405399 24.63310242 0.05158997 C28.12522308 0.06180587 31.61735053 0.06638399 35.10948181 0.07142639 C41.96561897 0.08216225 48.82172806 0.09923767 55.67784119 0.12025452 C52.53075481 13.48641051 49.37393234 26.85023608 46.20633316 40.21154594 C44.09789378 49.10568154 41.99926543 58.00205338 39.91079235 66.90089893 C38.40094995 73.3319238 36.88327924 79.76107471 35.36070728 86.1890974 C34.42855296 90.12587061 33.50004162 94.06342398 32.58021545 98.00309753 C31.70494595 101.75142996 30.81980631 105.49730318 29.92764473 109.24164963 C29.60115672 110.61936545 29.27811091 111.9979028 28.95896721 113.37733841 C25.7162579 127.37490009 22.40235576 140.43266349 9.74034119 148.43275452 C-0.86370149 154.39257521 -11.91180838 154.26982071 -23.75550842 154.26551819 C-25.10167534 154.26851505 -26.4478414 154.27191878 -27.79400635 154.2756958 C-31.43038921 154.28448465 -35.06674851 154.2868717 -38.70314097 154.28751159 C-40.97937877 154.28822479 -43.25561067 154.29036418 -45.531847 154.2930088 C-53.48498538 154.30224403 -61.43810705 154.30634582 -69.39125061 154.30555725 C-76.7859776 154.30495637 -84.18063167 154.31551485 -91.57534021 154.33130091 C-97.94162268 154.34440368 -104.30788139 154.34974003 -110.67417723 154.34910184 C-114.46883532 154.34884774 -118.26342848 154.35165065 -122.05807304 154.36227989 C-125.62780181 154.37200755 -129.19740414 154.37200831 -132.76713753 154.36476326 C-134.68929283 154.36323036 -136.61144825 154.37153069 -138.53358459 154.38020325 C-147.45751104 154.34798942 -156.32448503 154.3042453 -163.32215881 148.12025452 C-168.43005944 142.1053435 -168.08335108 134.28729953 -167.61470032 126.81184387 C-166.62992116 117.75117703 -164.1674434 108.84982263 -161.98768616 100.01893616 C-161.07086703 96.30251816 -160.18067806 92.5804882 -159.29481506 88.85658264 C-158.71692188 86.45842603 -158.13754565 84.06062621 -157.55653381 81.66322327 C-157.29281982 80.56713242 -157.02910583 79.47104156 -156.75740051 78.34173584 C-153.4704836 65.08284474 -149.70012067 52.44834044 -137.72772217 44.50032043 C-125.7946684 37.65435616 -112.67761696 38.59629574 -99.39637756 38.72962952 C-97.19535845 38.73710333 -94.99433263 38.74279086 -92.79330444 38.7467804 C-87.04097146 38.76194689 -81.28905181 38.80115017 -75.53688049 38.84559631 C-69.65091033 38.88674412 -63.76487243 38.90483285 -57.87879944 38.92494202 C-46.35973908 38.96765402 -34.84098351 39.03579491 -23.32215881 39.12025452 C-24.29607737 43.5178743 -25.27476486 47.91439441 -26.25794983 52.30995178 C-26.59195701 53.80640147 -26.92464326 55.30314662 -27.2559967 56.80018616 C-27.73163541 58.94802552 -28.21196548 61.09476852 -28.69325256 63.24134827 C-28.84120773 63.91427414 -28.9891629 64.58720001 -29.14160156 65.28051758 C-30.20828711 70.00638281 -30.20828711 70.00638281 -31.32215881 71.12025452 C-32.92692512 71.23784081 -34.53672928 71.28754506 -36.14564514 71.30970764 C-37.68778435 71.33478394 -37.68778435 71.33478394 -39.26107788 71.36036682 C-40.94066841 71.38072998 -40.94066841 71.38072998 -42.65419006 71.40150452 C-43.79748276 71.41991394 -44.94077545 71.43832336 -46.11871338 71.45729065 C-49.79064103 71.51625557 -53.46261651 71.56895763 -57.13465881 71.62025452 C-61.95376872 71.68786676 -66.77272862 71.76160338 -71.59169006 71.83900452 C-73.26217155 71.85936768 -73.26217155 71.85936768 -74.96640015 71.88014221 C-76.00394943 71.89685974 -77.04149872 71.91357727 -78.11048889 71.93080139 C-79.47830254 71.94959351 -79.47830254 71.94959351 -80.87374878 71.96876526 C-83.17892971 72.11139257 -85.1403212 72.36569962 -87.32215881 73.12025452 C-88.34575069 74.93199026 -88.34575069 74.93199026 -88.84169006 77.26869202 C-89.19867981 78.62752502 -89.19867981 78.62752502 -89.56288147 80.0138092 C-89.93872375 81.55149963 -89.93872375 81.55149963 -90.32215881 83.12025452 C-90.6152594 84.24592834 -90.90835999 85.37160217 -91.21034241 86.53138733 C-92.17301402 90.26255585 -93.09487221 94.0020776 -94.00965881 97.74525452 C-94.32999084 99.01627014 -94.65032288 100.28728577 -94.98036194 101.59681702 C-96.52398498 107.9161267 -97.75674735 113.60962628 -97.32215881 120.12025452 C-94.16565781 121.96662773 -91.84479944 122.37615333 -88.20570374 122.39491272 C-87.1875206 122.40444473 -86.16933746 122.41397675 -85.12030029 122.42379761 C-83.47805229 122.4224305 -83.47805229 122.4224305 -81.80262756 122.42103577 C-80.10472832 122.42746346 -80.10472832 122.42746346 -78.37252808 122.434021 C-75.97773405 122.43976331 -73.58292259 122.44026529 -71.18812561 122.43592834 C-67.53393043 122.43277546 -63.88055036 122.45620527 -60.22645569 122.48158264 C-57.89768067 122.48385642 -55.56890347 122.48455877 -53.24012756 122.48353577 C-51.6069886 122.49735039 -51.6069886 122.49735039 -49.94085693 122.51144409 C-43.99035899 122.47537658 -39.44887898 122.28025337 -34.32215881 119.12025452 C-30.36630215 114.57950495 -29.15573226 109.75320478 -27.83387756 104.03041077 C-27.61369965 103.12137497 -27.39352173 102.21233917 -27.16667175 101.27575684 C-26.43625024 98.24737056 -25.72305719 95.21519196 -25.00965881 92.18275452 C-24.4979524 90.04838306 -23.98515048 87.91427398 -23.47132874 85.78041077 C-21.89731085 79.22629762 -20.34362 72.66746207 -18.79248047 66.10790253 C-17.9682367 62.62452798 -17.14175406 59.14168484 -16.31532288 55.65882874 C-16.14488433 54.94043414 -15.97444578 54.22203955 -15.79884243 53.48187542 C-14.93339114 49.83436344 -14.06748962 46.18695891 -13.20095825 42.53970337 C-12.85764033 41.09446964 -12.5143328 39.64923344 -12.17103577 38.20399475 C-11.91752397 37.13689128 -11.91752397 37.13689128 -11.65889072 36.04823017 C-10.64319599 31.77032018 -9.63247631 27.49127041 -8.62574005 23.21124363 C-8.14701749 21.17769785 -7.66676425 19.14452051 -7.18589783 17.11148071 C-6.59306202 14.60404524 -6.00296095 12.09596121 -5.41593933 9.5871582 C-5.15400787 8.48239639 -4.89207642 7.37763458 -4.62220764 6.23939514 C-4.39414932 5.27022156 -4.166091 4.30104797 -3.93112183 3.30250549 C-3.05367724 0.15813668 -3.05367724 0.15813668 0 0 Z " fill="#1D1D1B" transform="translate(1007.3221588134766,1.8797454833984375)"/>
<path d="M0 0 C18.48 0 36.96 0 56 0 C54.87492107 10.12571034 54.87492107 10.12571034 53.97102356 13.88490295 C53.66643723 15.16876389 53.66643723 15.16876389 53.35569763 16.4785614 C53.13495071 17.38419327 52.9142038 18.28982513 52.68676758 19.22290039 C52.45242004 20.20313171 52.21807251 21.18336304 51.97662354 22.19329834 C51.20508903 25.41285156 50.42528684 28.63032768 49.64453125 31.84765625 C49.09963171 34.10570112 48.55493189 36.36379418 48.01042175 38.62193298 C46.86852145 43.35104309 45.72214882 48.07904325 44.57299805 52.80639648 C43.11115361 58.82290825 41.66354418 64.84274238 40.21976185 70.86361027 C39.09849758 75.53000809 37.96794474 80.19412019 36.83487511 84.85766411 C36.29791672 87.0737362 35.76411425 89.29057573 35.23371315 91.50822639 C29.55223779 115.22658436 23.29378015 139.2761138 2.203125 153.9453125 C-8.64947471 160.18712563 -20.02249515 163.1714661 -32.48388672 163.11352539 C-33.7287812 163.11374443 -33.7287812 163.11374443 -34.99882507 163.1139679 C-37.72580635 163.11327453 -40.45271824 163.10550923 -43.1796875 163.09765625 C-45.07683271 163.09579002 -46.9739784 163.09436709 -48.87112427 163.09336853 C-53.85234926 163.08955948 -58.83354487 163.07974301 -63.8147583 163.06866455 C-68.90254316 163.05841572 -73.99033278 163.05386348 -79.078125 163.04882812 C-89.05209621 163.03811925 -99.02604566 163.02106225 -109 163 C-108.36379934 160.13153079 -107.72727848 157.26313325 -107.09057617 154.39477539 C-106.8226186 153.18638882 -106.8226186 153.18638882 -106.54924774 151.95359039 C-105.17671825 145.77204781 -103.77196303 139.59915583 -102.3125 133.4375 C-102.10044922 132.52548828 -101.88839844 131.61347656 -101.66992188 130.67382812 C-101.46560547 129.81080078 -101.26128906 128.94777344 -101.05078125 128.05859375 C-100.87200439 127.29861084 -100.69322754 126.53862793 -100.5090332 125.75561523 C-100 124 -100 124 -99 123 C-97.55438838 122.89841501 -96.1039485 122.86432365 -94.65478516 122.8581543 C-93.26666122 122.84760262 -93.26666122 122.84760262 -91.85049438 122.83683777 C-90.84022186 122.83267349 -89.82994934 122.82850922 -88.7890625 122.82421875 C-86.65493833 122.80099541 -84.52082374 122.77687711 -82.38671875 122.75195312 C-79.01865469 122.71701673 -75.65093695 122.6876042 -72.28271484 122.67407227 C-69.03439848 122.65846229 -65.78710421 122.61814075 -62.5390625 122.57421875 C-61.05401718 122.57708138 -61.05401718 122.57708138 -59.53897095 122.58000183 C-49.47085405 122.40649764 -40.02354253 119.51123092 -32.484375 112.61328125 C-22.80488156 102.518254 -20.78512131 86.9066863 -17.734375 73.80859375 C-17.25159769 71.77004916 -16.76787791 69.73172757 -16.28326416 67.69361877 C-15.01882629 62.3655413 -13.76630114 57.0347369 -12.51660156 51.70318604 C-10.99063747 45.20265189 -9.45100012 38.70534541 -7.91293716 32.20766544 C-6.71805485 27.15894581 -5.52535345 22.10974518 -4.33929443 17.0589447 C-4.121745 16.13448547 -3.90419556 15.21002625 -3.68005371 14.2575531 C-3.27392827 12.53143093 -2.86885443 10.80506086 -2.46502686 9.07839966 C-1.74124139 6.00623534 -0.99870869 2.99612606 0 0 Z " fill="#1D1D1B" transform="translate(1065,41)"/>
<path d="M0 0 C16 0 16 0 22 3 C25.11479045 7.66201107 26.01890225 12.80220349 27.0847168 18.21826172 C27.27340993 19.1408182 27.46210306 20.06337467 27.65651417 21.01388741 C28.26204789 23.98426893 28.85586486 26.95685178 29.44921875 29.9296875 C29.82267219 31.77042076 30.19689521 33.61099806 30.57189941 35.45141602 C31.95308652 42.25739256 33.31940012 49.06638066 34.6875 55.875 C39.2971875 78.706875 39.2971875 78.706875 44 102 C44.33 68.34 44.66 34.68 45 0 C52.26 0 59.52 0 67 0 C67 66.66 67 133.32 67 202 C51.5483871 202 51.5483871 202 47 199 C43.56147117 193.84202676 41.99778913 189.05555223 40.70996094 183.03540039 C40.51123508 182.15237212 40.31250923 181.26934385 40.10776138 180.35955715 C39.47247827 177.5245406 38.85310341 174.68632628 38.234375 171.84765625 C37.8423592 170.08729013 37.44929721 168.32715664 37.05517578 166.56726074 C35.60745654 160.06848127 34.17993224 153.56521631 32.75 147.0625 C29.5325 132.521875 26.315 117.98125 23 103 C22.67 135.67 22.34 168.34 22 202 C14.74 202 7.48 202 0 202 C0 135.34 0 68.68 0 0 Z " fill="#1D1D1B" transform="translate(672,2)"/>
<path d="M0 0 C1.80984375 -0.02900391 1.80984375 -0.02900391 3.65625 -0.05859375 C12.47524219 -0.01066444 19.46918948 1.54128177 26.14257812 7.55615234 C34.73400398 16.26209939 34.43788894 26.90367891 34.38818359 38.375 C34.39225459 39.95776734 34.39759943 41.54053184 34.40411377 43.12329102 C34.41773041 47.40015705 34.41251221 51.67680472 34.40297651 55.95367432 C34.3953505 60.44177819 34.40243367 64.92986409 34.40713501 69.41796875 C34.41258402 76.95315894 34.40542342 84.48826075 34.39111328 92.0234375 C34.37478841 100.71960025 34.38007752 109.41555195 34.3965925 118.11170959 C34.41023176 125.59479064 34.41211511 133.07780836 34.40427649 140.56089783 C34.39961337 145.02289283 34.39893751 149.48478881 34.40888596 153.94677734 C34.41758895 158.14283059 34.41147324 162.33861325 34.39420319 166.53463745 C34.39025607 168.06923983 34.39134177 169.6038652 34.39799118 171.13845825 C34.43896635 181.56044744 34.32924267 191.1496611 26.75561523 199.06811523 C19.31183864 205.66927827 11.87485843 206.44858434 2.19848633 206.33178711 C0.06813294 206.31255086 -2.05568049 206.35203542 -4.18554688 206.39648438 C-12.74228762 206.45000689 -19.41131672 205.41947143 -26 199.625 C-31.55276909 192.95507251 -34.24542683 186.57175809 -34.26069641 177.81388855 C-34.26452196 177.15357661 -34.26834751 176.49326467 -34.27228898 175.81294328 C-34.28255768 173.6137385 -34.2786386 171.4147978 -34.2746582 169.21557617 C-34.27900815 167.63325256 -34.28419224 166.05093106 -34.29014587 164.46861267 C-34.30351846 160.17922047 -34.30411636 155.88991648 -34.30158257 151.6005075 C-34.30051143 148.01471892 -34.30540003 144.42894808 -34.310188 140.84316331 C-34.3212777 132.37972228 -34.32172396 123.91632564 -34.31567383 115.45288086 C-34.30963713 106.73463629 -34.32193854 98.01655323 -34.3432439 89.29833621 C-34.36088532 81.80258476 -34.36685715 74.30688461 -34.36360615 66.81111318 C-34.36179681 62.33900359 -34.36439438 57.86700916 -34.37832069 53.39491844 C-34.3909354 49.18660838 -34.38892065 44.9785491 -34.37590981 40.77024269 C-34.37355218 39.23079975 -34.37624937 37.69133896 -34.38453293 36.1519165 C-34.43857315 25.32322724 -34.16849762 15.68905499 -26.14257812 7.55615234 C-18.37171027 0.55209984 -10.10176736 -0.1618873 0 0 Z M-10.61290932 24.34338474 C-12.43432826 27.33942336 -12.3774128 29.38332536 -12.38095093 32.88084412 C-12.3894104 34.16648254 -12.39786987 35.45212097 -12.40658569 36.77671814 C-12.40075289 38.1993726 -12.39460839 39.62202582 -12.38818359 41.04467773 C-12.39224919 42.54452904 -12.397591 44.04437734 -12.40411377 45.54421997 C-12.41779591 49.61657763 -12.41248477 53.68870739 -12.40297651 57.76106906 C-12.39538315 62.02285296 -12.40242476 66.28461731 -12.40713501 70.54640198 C-12.4125941 77.70455428 -12.40539756 84.86261375 -12.39111328 92.02075195 C-12.37479268 100.29484199 -12.38007032 108.56871019 -12.3965925 116.84279484 C-12.41021045 123.9469481 -12.41212533 131.05103462 -12.40427649 138.15519673 C-12.39960087 142.39804632 -12.39897194 146.64079168 -12.40888596 150.88363457 C-12.41755764 154.87359996 -12.41153017 158.8632797 -12.39420319 162.85321426 C-12.39023913 164.31692722 -12.39137103 165.78066425 -12.39799118 167.2443676 C-12.40619925 169.24362703 -12.39407705 171.24293905 -12.38095093 173.24217224 C-12.37981985 174.36064261 -12.37868877 175.47911299 -12.37752342 176.6314764 C-11.94728612 180.04298794 -11.06313762 181.8933826 -9 184.625 C-4.5018379 187.2709777 -0.93337013 188.15947245 4.13671875 187.2734375 C7.28695049 186.17713044 8.98138623 184.1941448 11 181.625 C12.0840559 178.3728323 12.13390966 175.99476901 12.14717102 172.57206726 C12.15432632 171.30607697 12.16148163 170.04008667 12.16885376 168.73573303 C12.17169398 167.32992578 12.17440572 165.92411827 12.17700195 164.51831055 C12.18326743 163.03993571 12.18991431 161.56156245 12.19691467 160.08319092 C12.2179455 155.22604467 12.22831537 150.36889813 12.23828125 145.51171875 C12.24232901 143.83931779 12.24644594 142.16691699 12.25063133 140.49451637 C12.26967997 132.6381834 12.28391232 124.78185982 12.2922433 116.9255082 C12.3020183 107.85725694 12.32834593 98.7892496 12.36874419 89.7210843 C12.39890116 82.71121948 12.41371173 75.70142462 12.41702431 68.69149619 C12.41937508 64.504977 12.4283389 60.3187185 12.45348549 56.13226891 C12.47676439 52.1931801 12.48100039 48.25452367 12.47072411 44.31538391 C12.4702286 42.87142308 12.47655345 41.42744097 12.49028015 39.9835453 C12.50800046 38.00873741 12.49850717 36.03374175 12.48774719 34.05888367 C12.49013555 32.95478496 12.4925239 31.85068624 12.49498463 30.71313 C11.7913186 26.3230701 9.75915875 23.00719616 6.25 20.25 C-0.52454746 18.36818126 -5.76007859 19.1732055 -10.61290932 24.34338474 Z " fill="#1D1D1B" transform="translate(564,-0.625)"/>
<path d="M0 0 C2.73083902 -0.13548815 5.45491807 -0.23429855 8.1875 -0.3125 C8.95642578 -0.35439453 9.72535156 -0.39628906 10.51757812 -0.43945312 C11.26845703 -0.45556641 12.01933594 -0.47167969 12.79296875 -0.48828125 C13.4789917 -0.51446533 14.16501465 -0.54064941 14.87182617 -0.56762695 C18.27220896 0.33932383 19.75412676 2.34985734 22 5 C23.04542255 8.35543442 23.04542255 8.35543442 23.63630676 12.18743896 C23.74984176 12.88604845 23.86337677 13.58465793 23.98035222 14.3044374 C24.33854354 16.53384375 24.66915836 18.76639128 25 21 C25.22727076 22.42457698 25.45676695 23.8488008 25.68854332 25.27265167 C26.42687135 29.84455318 27.123844 34.42235886 27.8190918 39.00097656 C28.0853171 40.74070095 28.35177299 42.48039006 28.61843872 44.220047 C29.33359124 48.89032093 30.04534431 53.5611067 30.75626731 58.2320261 C31.35172641 62.14205219 31.94893931 66.05180958 32.54615527 69.96156764 C33.95385132 79.17729715 35.35882924 88.3934381 36.76196289 97.60986328 C38.20875151 107.11277673 39.65970616 116.61504738 41.11274785 126.11700654 C42.36338863 134.29618474 43.61171584 142.47571362 44.85812122 150.65553832 C45.6012899 155.53270094 46.34528223 160.4097341 47.09140587 165.28644562 C47.79096722 169.85962737 48.48763119 174.43324117 49.18204117 179.00720787 C49.43739934 180.68598466 49.69377655 182.3646068 49.95123863 184.04306221 C50.30196908 186.330647 50.6490344 188.61875854 50.99516296 190.90704346 C51.19037379 192.18783405 51.38558462 193.46862465 51.58671093 194.78822708 C52 198 52 198 52 202 C44.08 202 36.16 202 28 202 C26.52137561 190.92179431 25.04306351 179.84354705 23.56524372 168.76523399 C22.87839236 163.61641454 22.19142447 158.4676107 21.50415039 153.31884766 C17.97548017 126.88278999 14.4673892 100.44416944 11 74 C9.46926254 81.14665948 8.34277753 88.28930044 7.41186523 95.53662109 C7.26687592 96.64356323 7.1218866 97.75050537 6.97250366 98.89099121 C6.49812633 102.5180795 6.02842445 106.14575774 5.55859375 109.7734375 C5.22790672 112.30551816 4.89685147 114.83755076 4.56544495 117.36953735 C3.60790092 124.69109818 2.65496183 132.01325155 1.70277405 139.33551025 C0.40525128 149.31117278 -0.89575874 159.28637623 -2.2002697 169.26112747 C-2.68589587 172.98122569 -3.16855335 176.70170109 -3.65101624 180.42221069 C-3.94764041 182.69473864 -4.24438184 184.96725128 -4.54125977 187.23974609 C-4.67478348 188.27563873 -4.80830719 189.31153137 -4.94587708 190.3788147 C-5.07057373 191.32907532 -5.19527039 192.27933594 -5.32374573 193.25839233 C-5.48438932 194.4943921 -5.48438932 194.4943921 -5.64827824 195.75536156 C-5.97797525 197.85944119 -6.48345883 199.93383533 -7 202 C-14.92 202 -22.84 202 -31 202 C-25.64655323 163.52293711 -19.77151483 125.12364746 -13.9352113 86.71759129 C-12.81342364 79.33356957 -11.69560974 71.94894997 -10.5785777 64.56420755 C-9.49042893 57.37151292 -8.39968011 50.1792158 -7.30685741 42.98722982 C-6.65868616 38.72128001 -6.01154999 34.45517967 -5.36704063 30.18867493 C-4.76668769 26.21509695 -4.16311223 22.24202213 -3.55698204 18.26932144 C-3.33528495 16.81255497 -3.1147577 15.35560994 -2.89546585 13.89847946 C-2.59711423 11.9172376 -2.29419483 9.93668516 -1.99101257 7.95617676 C-1.82274302 6.84742439 -1.65447348 5.73867203 -1.48110485 4.59632111 C-1 2 -1 2 0 0 Z " fill="#1D1D1B" transform="translate(150,2)"/>
<path d="M0 0 C1.09505859 -0.03738281 2.19011719 -0.07476563 3.31835938 -0.11328125 C11.69325586 -0.20306573 18.53922548 1.33552765 24.84985352 7.13134766 C31.0807372 13.74424326 32.4002188 20.46748464 32.37109375 29.25390625 C32.3763356 30.18420151 32.38157745 31.11449677 32.38697815 32.07298279 C32.39337355 34.03033453 32.39209368 35.98772484 32.38354492 37.94506836 C32.37501521 40.93217428 32.4038626 43.9173785 32.43554688 46.90429688 C32.43715868 48.81249943 32.43658176 50.72070535 32.43359375 52.62890625 C32.44482773 53.51655167 32.45606171 54.40419708 32.46763611 55.31874084 C32.40616555 60.80889033 31.67879578 64.07253067 27.9375 68.375 C26.13818359 69.69873047 26.13818359 69.69873047 24.3359375 70.4921875 C23.68109375 70.78867188 23.02625 71.08515625 22.3515625 71.390625 C21.67867188 71.67421875 21.00578125 71.9578125 20.3125 72.25 C19.631875 72.55679688 18.95125 72.86359375 18.25 73.1796875 C13.29094587 75.375 13.29094587 75.375 10.9375 75.375 C10.93203156 74.49296402 10.93203156 74.49296402 10.92645264 73.59310913 C10.88457028 67.46059969 10.81518453 61.32883467 10.72998047 55.19677734 C10.70179348 52.90974379 10.68056769 50.62261323 10.66650391 48.33544922 C10.64504362 45.04344094 10.59837529 41.75259622 10.546875 38.4609375 C10.54564636 37.44196381 10.54441772 36.42299011 10.54315186 35.37313843 C10.4212769 29.43630956 9.93289162 25.88033282 5.9375 21.375 C2.95333802 20.08310877 0.15670762 20.01348471 -3.0625 20.375 C-5.98393417 22.14003314 -7.54173817 23.33347635 -9.0625 26.375 C-9.16722449 28.39069973 -9.20642323 30.40990527 -9.21640015 32.42829895 C-9.22500061 33.7196022 -9.23360107 35.01090546 -9.24246216 36.34133911 C-9.24689753 37.78070028 -9.25119587 39.22006188 -9.25537109 40.65942383 C-9.26327099 42.16883026 -9.27153987 43.67823479 -9.28015137 45.18763733 C-9.30638324 50.15241692 -9.32167956 55.117205 -9.3359375 60.08203125 C-9.34129659 61.7900512 -9.34667409 63.49807109 -9.35206985 65.20609093 C-9.37369976 72.3098938 -9.39243727 79.41369438 -9.40369225 86.51752186 C-9.41993676 96.704169 -9.45312519 106.89043501 -9.51009309 117.07693845 C-9.54876883 124.23623343 -9.56832208 131.39542637 -9.57361281 138.5548231 C-9.57726938 142.83249121 -9.58932264 147.10975294 -9.62171555 151.38730812 C-9.6517551 155.41180243 -9.6581231 159.43564361 -9.64633179 163.46022606 C-9.64611071 164.93686734 -9.65444446 166.41353857 -9.67198563 167.89007568 C-9.69463947 169.90684 -9.68340955 171.92389989 -9.67050171 173.94075012 C-9.67381186 175.06919248 -9.677122 176.19763483 -9.68053246 177.36027241 C-8.86520312 181.33740311 -7.15116815 182.83109916 -4.0625 185.375 C-1.00545923 186.52139029 0.42449244 186.52157359 3.5625 185.625 C7.21686461 183.70165021 8.62408876 182.31523373 9.9375 178.375 C10.03172885 175.78827191 10.07449125 173.2235777 10.078125 170.63671875 C10.096455 169.07876145 10.1160255 167.52081833 10.13671875 165.96289062 C10.16565522 163.51383513 10.18749936 161.06569251 10.18798828 158.61645508 C10.19133543 156.24739161 10.22595371 153.88041746 10.265625 151.51171875 C10.2585553 150.78651535 10.2514856 150.06131195 10.24420166 149.31413269 C10.38085347 143.56524134 11.9845302 141.25430972 15.9375 137.375 C19.1640625 135.4765625 19.1640625 135.4765625 22.5625 134 C23.68914062 133.49726563 24.81578125 132.99453125 25.9765625 132.4765625 C28.9375 131.375 28.9375 131.375 31.9375 131.375 C32.03929976 139.04293419 32.10913338 146.71069271 32.15722656 154.37915039 C32.17728535 156.98533643 32.20453911 159.59147779 32.23925781 162.19750977 C32.2880263 165.95340026 32.31052717 169.7086933 32.328125 173.46484375 C32.34877014 174.62145004 32.36941528 175.77805634 32.39068604 176.9697113 C32.3929014 185.03899062 31.04337925 191.10351106 26.26171875 197.6796875 C25.72160156 198.19789063 25.18148437 198.71609375 24.625 199.25 C24.09261719 199.78367188 23.56023437 200.31734375 23.01171875 200.8671875 C15.74262459 206.15131244 8.73967235 205.86244098 0 205.8125 C-1.8552832 205.8424707 -1.8552832 205.8424707 -3.74804688 205.87304688 C-12.13481821 205.86856437 -17.81394699 204.95431191 -24.26953125 199.515625 C-25.06423828 198.57976562 -25.06423828 198.57976562 -25.875 197.625 C-26.68904297 196.70460937 -26.68904297 196.70460937 -27.51953125 195.765625 C-32.86429994 187.48461629 -32.49717059 179.07307318 -32.46655273 169.57080078 C-32.47226158 167.97009811 -32.47922783 166.36939951 -32.48735046 164.76870728 C-32.50524139 160.43801009 -32.50412103 156.10751599 -32.49840808 151.776793 C-32.49530996 148.15371086 -32.50141569 144.53066738 -32.50744683 140.90759075 C-32.52147745 132.35584137 -32.5199433 123.80419192 -32.50854492 115.25244141 C-32.49706833 106.44778139 -32.51113494 97.64342613 -32.5379414 88.83880627 C-32.56013744 81.26315808 -32.5667269 73.68760529 -32.56086498 66.11192691 C-32.55750315 61.59451362 -32.55985872 57.07729559 -32.57711601 52.55990982 C-32.59264521 48.30963978 -32.58856387 44.05981917 -32.56981087 39.8095665 C-32.56614127 38.2560306 -32.56918559 36.70246097 -32.57969666 35.1489563 C-32.6423391 25.11938147 -31.59464803 17.26191339 -26.375 8.5625 C-18.53161609 1.14308279 -10.34466644 0.13071951 0 0 Z " fill="#1D1D1B" transform="translate(423.0625,-0.375)"/>
<path d="M0 0 C0.99261337 0.00222061 1.98522675 0.00444122 3.00791931 0.00672913 C4.12900589 0.00680466 5.25009247 0.00688019 6.40515137 0.00695801 C8.2348069 0.01469994 8.2348069 0.01469994 10.10142517 0.02259827 C11.96377052 0.02472069 11.96377052 0.02472069 13.86373901 0.02688599 C17.16982383 0.03154861 20.47584039 0.04053955 23.78190613 0.05158997 C27.15338042 0.06180625 30.52486175 0.06638407 33.89634705 0.07142639 C40.51550728 0.08248056 47.13463241 0.0996331 53.75376892 0.12025452 C52.49684422 7.37148533 51.03444829 14.53974769 49.33946228 21.70057678 C49.10669083 22.69383469 48.87391937 23.68709259 48.63409424 24.71044922 C47.8733662 27.95317672 47.10863083 31.19494294 46.34361267 34.43666077 C45.81060987 36.7029729 45.27778079 38.96932589 44.74511719 41.23571777 C43.63317678 45.96401183 42.51926528 50.69183586 41.40391541 55.41932678 C39.97224971 61.48818661 38.54536816 67.55815944 37.11991024 73.62847996 C36.02283839 78.29817657 34.92336325 82.9673047 33.82313728 87.63625908 C33.29571383 89.87567589 32.76902322 92.11526544 32.2430706 94.35502815 C31.51070624 97.47209259 30.77513946 100.58838374 30.03868103 103.70448303 C29.82100067 104.63378632 29.60332031 105.5630896 29.37904358 106.52055359 C29.17861954 107.36564987 28.9781955 108.21074615 28.771698 109.08145142 C28.59823318 109.8175039 28.42476835 110.55355639 28.24604702 111.31191349 C27.75376892 113.12025452 27.75376892 113.12025452 26.75376892 115.12025452 C8.27376892 115.12025452 -10.20623108 115.12025452 -29.24623108 115.12025452 C-28.01863377 107.75467068 -26.77020015 100.59303176 -25.03138733 93.36366272 C-24.81972931 92.46928497 -24.60807129 91.57490723 -24.38999939 90.65342712 C-23.69998342 87.74172738 -23.00438876 84.83139223 -22.30873108 81.92103577 C-21.82276758 79.87475162 -21.33717842 77.82837854 -20.85194397 75.78192139 C-19.58048616 70.42365089 -18.30436734 65.06650175 -17.02711487 59.70960999 C-15.47719089 53.20559886 -13.93240791 46.70036521 -12.38726807 40.19521618 C-11.18496203 35.1335938 -9.98178311 30.07218511 -8.77577209 25.01144409 C-8.55358002 24.07804703 -8.33138794 23.14464996 -8.10246277 22.18296814 C-7.6918438 20.45806367 -7.28073666 18.73327528 -6.8690033 17.00863647 C-5.74972574 12.30361214 -4.69021376 7.5921024 -3.70352173 2.85730267 C-3.01786103 0.2527761 -2.74106669 0.1467461 0 0 Z " fill="#1D1D1B" transform="translate(1135.2462310791016,40.87974548339844)"/>
<path d="M0 0 C1.26108078 0.00022659 2.52216156 0.00045319 3.82145691 0.00068665 C5.19778803 0.01600655 6.57411553 0.03165453 7.95043945 0.04760742 C9.35862273 0.05320357 10.76681185 0.05747358 12.17500305 0.06047058 C15.87904014 0.07191799 19.5827236 0.10138383 23.28662109 0.13458252 C27.06709001 0.16528591 30.84761614 0.17897646 34.62817383 0.1940918 C42.04435057 0.22625401 49.46023606 0.27744862 56.8762207 0.34057617 C56.13380244 4.40373016 54.95135587 7.6822465 53.1262207 11.40307617 C52.63637695 12.42530273 52.1465332 13.4475293 51.6418457 14.50073242 C49.65855503 17.69067118 48.00749561 19.27219363 44.8762207 21.34057617 C41.6940918 21.85473633 41.6940918 21.85473633 38.1496582 21.87963867 C36.8709082 21.9028418 35.5921582 21.92604492 34.2746582 21.94995117 C32.93351823 21.95649651 31.59237102 21.96169066 30.2512207 21.96557617 C27.61273942 21.98711997 24.97548875 22.02449899 22.3371582 22.06713867 C21.16975098 22.07310059 20.00234375 22.0790625 18.79956055 22.08520508 C15.68451345 22.1215793 15.68451345 22.1215793 12.8762207 24.34057617 C12.39742672 27.1265579 12.39742672 27.1265579 12.44384766 30.44262695 C12.4240535 31.72380402 12.40425934 33.00498108 12.38386536 34.32498169 C12.37709504 35.72861586 12.37064824 37.13225163 12.36450195 38.53588867 C12.34766229 39.96794181 12.32951302 41.39998011 12.31010437 42.83200073 C12.26252013 46.60324464 12.2327657 50.37442839 12.20666504 54.14587402 C12.17166981 58.66978137 12.1146334 63.19345752 12.06127167 67.71717834 C11.98265888 74.59161545 11.93212929 81.46574792 11.8762207 88.34057617 C24.0862207 88.34057617 36.2962207 88.34057617 48.8762207 88.34057617 C41.8762207 104.34057617 41.8762207 104.34057617 36.8762207 109.34057617 C31.71419604 111.1454799 25.55653697 110.71733857 20.1184082 110.94604492 C16.1766256 110.75248903 16.1766256 110.75248903 12.8762207 112.34057617 C12.77768007 114.99703319 12.74322032 117.62823141 12.75024414 120.28515625 C12.74837601 121.11768417 12.74650787 121.9502121 12.74458313 122.80796814 C12.74056923 124.62227378 12.73850339 126.43658451 12.73812103 128.25089455 C12.73471832 132.10348767 12.71337153 135.95591006 12.69289017 139.80844402 C12.65479728 146.98918021 12.62360669 154.16973733 12.62573242 161.35058594 C12.6265184 166.33810209 12.60320215 171.32499866 12.5638504 176.31235313 C12.55336852 178.21533105 12.55188241 180.11838031 12.55950165 182.02137184 C12.56909819 184.68420292 12.54798972 187.34515155 12.51977539 190.0078125 C12.52997208 190.79602386 12.54016876 191.58423523 12.55067444 192.39633179 C12.48298345 195.95475033 12.29013766 197.88607213 9.85622025 200.55865002 C5.92274564 202.91071792 3.04230604 202.79869631 -1.4362793 202.59057617 C-2.1768457 202.5725293 -2.91741211 202.55448242 -3.68041992 202.53588867 C-5.49543639 202.48904954 -7.30978095 202.41731406 -9.1237793 202.34057617 C-9.19378938 176.44603073 -9.24672819 150.55149942 -9.27921581 124.65687847 C-9.29469978 112.63417591 -9.31581848 100.61153207 -9.35009766 88.58886719 C-9.37995323 78.11271098 -9.39934316 67.6365973 -9.40604478 57.16039973 C-9.40996356 51.61079796 -9.41920491 46.06131785 -9.44096947 40.51175499 C-9.46127394 35.29238665 -9.46762536 30.07319055 -9.46310234 24.85378647 C-9.46393025 22.93448133 -9.46993172 21.01517066 -9.48139572 19.09589958 C-9.49624545 16.48243529 -9.49276064 13.86962768 -9.48454285 11.25614929 C-9.49328137 10.49058911 -9.5020199 9.72502892 -9.51102322 8.93626994 C-9.46750629 3.84252458 -9.46750629 3.84252458 -7.77326202 1.36840057 C-5.20574074 -0.2314713 -2.99873518 -0.0179565 0 0 Z " fill="#1D1D1B" transform="translate(9.123779296875,1.659423828125)"/>
<path d="M0 0 C5.94 0 11.88 0 18 0 C22 4 22 4 22.49219131 7.24084854 C22.48850414 8.53504589 22.48481697 9.82924324 22.48101807 11.16265869 C22.48443577 11.88478161 22.48785347 12.60690452 22.49137473 13.35090995 C22.49796454 15.77112741 22.47596074 18.19023627 22.45410156 20.61035156 C22.45297332 22.3449094 22.4536065 24.07946915 22.45587158 25.81402588 C22.45702055 30.52454956 22.43348165 35.23466688 22.40557575 39.94509602 C22.38059259 44.86716471 22.37822253 49.78924243 22.37347412 54.71136475 C22.36103527 64.0328041 22.32820133 73.35405609 22.28807616 82.67541289 C22.24338676 93.28712737 22.22137853 103.89885072 22.20129442 114.51063585 C22.15946948 136.34055175 22.08610573 158.17021076 22 180 C37.51 180 53.02 180 69 180 C62.96825397 195.68253968 62.96825397 195.68253968 60 199 C41.59413512 206.88822781 20.02498439 202 0 202 C0 135.34 0 68.68 0 0 Z " fill="#1D1D1B" transform="translate(269,2)"/>
<path d="M0 0 C2.97 0 5.94 0 9 0 C9 66.66 9 133.32 9 202 C6.03 202 3.06 202 0 202 C0 135.34 0 68.68 0 0 Z " fill="#1D1D1B" transform="translate(789,2)"/>
<path d="M0 0 C18 0 18 0 26 3 C29.46798329 6.46798329 30.15761602 8.59261457 30.3125 13.3125 C30.26012555 17.89900576 29.12397527 20.52891636 26 24 C23.859375 24.65625 23.859375 24.65625 22 25 C22.32798584 25.52956299 22.65597168 26.05912598 22.99389648 26.60473633 C24.47827704 29.00537518 25.95793326 31.40889158 27.4375 33.8125 C27.95376953 34.64587891 28.47003906 35.47925781 29.00195312 36.33789062 C29.49501953 37.14033203 29.98808594 37.94277344 30.49609375 38.76953125 C30.95169678 39.50792236 31.4072998 40.24631348 31.87670898 41.00708008 C33 43 33 43 34 46 C30.87710289 46.48758988 28.10777163 46.64796233 25 46 C22.44730303 43.77000666 21.0185386 41.09420573 19.4375 38.125 C19.00115234 37.37863281 18.56480469 36.63226563 18.11523438 35.86328125 C15 30.43485086 15 30.43485086 15 28 C12.69 28 10.38 28 8 28 C8 33.94 8 39.88 8 46 C5.36 46 2.72 46 0 46 C0 30.82 0 15.64 0 0 Z M8 7 C8 11.62 8 16.24 8 21 C14.47747508 21.60407835 14.47747508 21.60407835 20.125 18.875 C22.26187772 16.13500227 22.26187772 16.13500227 22.125 12.875 C21.21144569 9.9134982 21.21144569 9.9134982 18.9375 8.125 C15.06136357 6.64052222 12.1351269 6.78973931 8 7 Z " fill="#000000" transform="translate(1567,33)"/>
<path d="M0 0 C2.64 0 5.28 0 8 0 C8 16.17 8 32.34 8 49 C5.69 49 3.38 49 1 49 C0.67 48.01 0.34 47.02 0 46 C-0.61875 46.495 -1.2375 46.99 -1.875 47.5 C-6.283874 49.61625952 -10.18800036 49.57870836 -15 49 C-19.24237619 47.28499686 -21.04745665 45.10034104 -23 41 C-25.05432582 34.27675187 -24.64045684 27.16395913 -21.921875 20.7265625 C-19.95643924 17.0455345 -17.91518493 15.30506164 -14 14 C-12.52413385 13.88312662 -11.04293388 13.82498258 -9.5625 13.8125 C-8.80066406 13.79832031 -8.03882813 13.78414062 -7.25390625 13.76953125 C-5 14 -5 14 -1 16 C-0.67 10.72 -0.34 5.44 0 0 Z M-12.640625 22.25 C-15.10800381 25.42639572 -15.62699934 29.06058952 -16 33 C-15.38754589 36.7972155 -14.78942578 39.06438426 -12.3125 42 C-8.85988693 43.49302187 -6.5773185 42.97563232 -3 42 C-0.69465478 39.71059034 -0.04672236 38.36975974 0.36328125 35.125 C0.34652344 34.09375 0.32976562 33.0625 0.3125 32 C0.30669922 30.453125 0.30669922 30.453125 0.30078125 28.875 C0.00459849 26.04395439 -0.4507001 24.36500904 -2 22 C-5.33941251 20.33029374 -9.57315923 19.91288322 -12.640625 22.25 Z " fill="#000000" transform="translate(1532,30)"/>
<path d="M0 0 C2.97 0 5.94 0 9 0 C12.733938 8.73935978 16.17378593 17.56799778 19.50415039 26.46728516 C20.32490565 28.65811419 21.15157103 30.84665698 21.97851562 33.03515625 C22.50295846 34.43215871 23.02706025 35.82928927 23.55078125 37.2265625 C23.79758133 37.87855621 24.04438141 38.53054993 24.29866028 39.20230103 C26 43.77073094 26 43.77073094 26 46 C23.03 46 20.06 46 17 46 C16.32942113 44.2097939 15.6636531 42.41778511 15 40.625 C14.62875 39.62726563 14.2575 38.62953125 13.875 37.6015625 C13 35 13 35 13 33 C7.39 33 1.78 33 -4 33 C-4.33 34.98 -4.66 36.96 -5 39 C-5.86173773 41.42000959 -6.92410684 43.66110182 -8 46 C-10.97 46 -13.94 46 -17 46 C-13.18283056 34.90443352 -9.24660245 23.86151427 -5.125 12.875 C-4.7319165 11.82634766 -4.33883301 10.77769531 -3.93383789 9.69726562 C-1.1354612 2.27092241 -1.1354612 2.27092241 0 0 Z M4 9 C3.16301614 11.45714547 2.33027576 13.91558857 1.5 16.375 C1.26152344 17.07367188 1.02304688 17.77234375 0.77734375 18.4921875 C-0.53735912 22.16403079 -0.53735912 22.16403079 -1 26 C2.63 26 6.26 26 10 26 C8.7915371 20.05064416 7.25422333 14.63555833 5 9 C4.67 9 4.34 9 4 9 Z " fill="#000000" transform="translate(1225,33)"/>
<path d="M0 0 C2.64 0 5.28 0 8 0 C8.33 5.61 8.66 11.22 9 17 C10.65 16.01 12.3 15.02 14 14 C18.07886156 13.22430525 22.20097644 13.05713825 25.9453125 15.01953125 C28.59967763 17.14174105 29.92120065 18.76360196 31 22 C31.08315752 24.06498892 31.10735878 26.1325789 31.09765625 28.19921875 C31.09443359 29.40771484 31.09121094 30.61621094 31.08789062 31.86132812 C31.07951172 33.12396484 31.07113281 34.38660156 31.0625 35.6875 C31.05798828 36.96173828 31.05347656 38.23597656 31.04882812 39.54882812 C31.03702873 42.69926564 31.02056597 45.84960949 31 49 C28.36 49 25.72 49 23 49 C22.98018066 48.2886792 22.96036133 47.5773584 22.93994141 46.84448242 C22.84475133 43.62511184 22.73504771 40.4063955 22.625 37.1875 C22.5940625 36.06794922 22.563125 34.94839844 22.53125 33.79492188 C22.49257812 32.72177734 22.45390625 31.64863281 22.4140625 30.54296875 C22.36693115 29.0583313 22.36693115 29.0583313 22.31884766 27.54370117 C22.16226567 24.75924906 22.16226567 24.75924906 20 22 C18.02252878 21.63702064 18.02252878 21.63702064 15.875 21.8125 C14.59625 21.874375 13.3175 21.93625 12 22 C8.99570411 27.87166676 8.47737386 32.89436327 8.3125 39.4375 C8.27833984 40.35982422 8.24417969 41.28214844 8.20898438 42.23242188 C8.12717006 44.48815951 8.05780878 46.74354119 8 49 C5.36 49 2.72 49 0 49 C0 32.83 0 16.66 0 0 Z " fill="#000000" transform="translate(1320,30)"/>
<path d="M0 0 C-0.33 1.98 -0.66 3.96 -1 6 C-4.95126368 7.31708789 -7.4651824 6.34490951 -11.4296875 5.375 C-14.23278804 4.966037 -16.27402696 5.29652309 -19 6 C-19.67012422 8.7859186 -19.67012422 8.7859186 -19 12 C-16.62918522 14.15705279 -13.82284414 15.51167352 -11 17 C-9.20051147 18.00698122 -7.40880773 19.02799523 -5.625 20.0625 C-4.79226563 20.52785156 -3.95953125 20.99320313 -3.1015625 21.47265625 C-0.75622244 23.17716919 0.03972199 24.28862681 1 27 C1.4295804 32.41271309 1.41866383 35.56839874 -2 40 C-2.4125 40.556875 -2.825 41.11375 -3.25 41.6875 C-8.95064008 45.96298006 -15.28002799 45.02227743 -22.01171875 44.484375 C-24.77214951 44.03693263 -26.61620097 43.41519942 -29 42 C-29 39.69 -29 37.38 -29 35 C-28.030625 35.144375 -27.06125 35.28875 -26.0625 35.4375 C-25.42699219 35.52386719 -24.79148437 35.61023438 -24.13671875 35.69921875 C-22.6566689 35.90756215 -21.18002811 36.14108545 -19.70703125 36.39453125 C-15.73370339 37.00018089 -13.66336391 37.3113749 -9.9375 35.5625 C-9.298125 35.046875 -8.65875 34.53125 -8 34 C-7.92230546 31.12512633 -7.92230546 31.12512633 -9 28 C-11.48205389 26.3712457 -13.63293199 25.18312077 -16.3125 24 C-21.82620349 21.52381727 -25.09922439 19.61157599 -28 14 C-29.04943428 9.80226288 -28.26410694 6.58323616 -26.5 2.6875 C-19.79362609 -4.52185195 -8.3948122 -4.85699849 0 0 Z " fill="#000000" transform="translate(1782,35)"/>
<path d="M0 0 C2.64 0 5.28 0 8 0 C8 14.52 8 29.04 8 44 C6.02 44 4.04 44 2 44 C1.34 43.01 0.68 42.02 0 41 C-0.474375 41.495 -0.94875 41.99 -1.4375 42.5 C-5.24826514 44.73069179 -8.69121259 44.7990299 -13 44 C-16.31023294 42.29939407 -18.47403505 40.0627374 -20.140625 36.6953125 C-22.01967254 30.80193612 -21.78693931 24.31940008 -19.8125 18.5 C-17.68212069 15.56154578 -16.18232633 13.79870619 -13 12 C-8.26047485 11.33246125 -5.03552534 11.30964977 -1 14 C-0.67 9.38 -0.34 4.76 0 0 Z M-11.375 19.4375 C-13.95363231 23.5038048 -14.47581092 27.3855442 -13.62890625 32.0390625 C-12.99054686 34.23711654 -12.99054686 34.23711654 -11 37 C-7.35931824 38.19149585 -5.23374985 38.45453942 -1.625 37.125 C0.98825087 33.70767194 1.16083338 30.22362447 1 26 C0.46215103 22.9427532 -0.20482355 21.69276468 -2 19 C-5.87911691 17.65994143 -7.81114544 17.28043013 -11.375 19.4375 Z " fill="#000000" transform="translate(1499,120)"/>
<path d="M0 0 C2.97 0 5.94 0 9 0 C11.13827368 5.81997151 13.27446387 11.64070172 15.40869141 17.4621582 C16.13565169 19.44414142 16.86318989 21.42591276 17.59130859 23.4074707 C18.63529553 26.24896168 19.67722969 29.09119789 20.71875 31.93359375 C21.04685669 32.82525742 21.37496338 33.71692108 21.7130127 34.63560486 C22.01332397 35.45638016 22.31363525 36.27715546 22.62304688 37.12280273 C22.88952026 37.84894272 23.15599365 38.5750827 23.43054199 39.32322693 C24 41 24 41 24 42 C21.36 42 18.72 42 16 42 C15.3291288 40.3767313 14.66342971 38.75132422 14 37.125 C13.62875 36.22007812 13.2575 35.31515625 12.875 34.3828125 C12 32 12 32 12 30 C7.05 30 2.1 30 -3 30 C-3.7115625 32.6915625 -3.7115625 32.6915625 -4.4375 35.4375 C-5.875 40.875 -5.875 40.875 -7 42 C-9.67058851 42.14115161 -12.32432238 42.04247107 -15 42 C-10.43805734 27.83114281 -5.30161721 13.90744877 0 0 Z M4 8 C2.35 13.28 0.7 18.56 -1 24 C2.63 24 6.26 24 10 24 C8.35 18.72 6.7 13.44 5 8 C4.67 8 4.34 8 4 8 Z " fill="#000000" transform="translate(1223,122)"/>
<path d="M0 0 C3.26025214 2.32229398 4.59128608 3.68493072 5.25390625 7.60546875 C5.33481717 9.63015586 5.36149524 11.65731494 5.3515625 13.68359375 C5.34833984 14.84375 5.34511719 16.00390625 5.34179688 17.19921875 C5.33341797 18.40578125 5.32503906 19.61234375 5.31640625 20.85546875 C5.31189453 22.0775 5.30738281 23.29953125 5.30273438 24.55859375 C5.2909544 27.57426821 5.27450478 30.58984373 5.25390625 33.60546875 C2.37890625 33.79296875 2.37890625 33.79296875 -0.74609375 33.60546875 C-1.40609375 32.61546875 -2.06609375 31.62546875 -2.74609375 30.60546875 C-3.34421875 31.10046875 -3.94234375 31.59546875 -4.55859375 32.10546875 C-9.2713639 34.32324294 -13.62448404 34.26681775 -18.74609375 33.60546875 C-21.87109375 32.16796875 -21.87109375 32.16796875 -23.74609375 29.60546875 C-24.99108005 25.38197093 -25.19774894 21.90397742 -23.74609375 17.73046875 C-20.11788892 13.87550112 -16.77599596 12.72218813 -11.62109375 12.42578125 C-8.65609396 12.41878833 -5.70793806 12.47415546 -2.74609375 12.60546875 C-3.40609375 10.62546875 -4.06609375 8.64546875 -4.74609375 6.60546875 C-10.23555462 5.48517061 -13.58039934 5.81328906 -18.74609375 7.60546875 C-20.74609375 4.60546875 -20.74609375 4.60546875 -20.74609375 0.60546875 C-14.54563999 -2.15028848 -6.17285261 -3.13472032 0 0 Z M-15.74609375 20.60546875 C-16.89516495 22.53093315 -16.89516495 22.53093315 -16.74609375 24.60546875 C-15.77087838 26.49897206 -15.77087838 26.49897206 -13.74609375 27.60546875 C-10.83168676 28.27268411 -10.83168676 28.27268411 -7.74609375 27.60546875 C-4.7665059 25.54261656 -4.7665059 25.54261656 -2.74609375 22.60546875 C-2.32622429 19.89383097 -2.32622429 19.89383097 -2.74609375 17.60546875 C-9.76662804 17.1943391 -9.76662804 17.1943391 -15.74609375 20.60546875 Z " fill="#000000" transform="translate(1689.74609375,45.39453125)"/>
<path d="M0 0 C3.72210795 2.96249408 4.78843302 4.8658479 6.0625 9.4375 C6.0625 12.4075 6.0625 15.3775 6.0625 18.4375 C-1.5275 18.4375 -9.1175 18.4375 -16.9375 18.4375 C-13.9507667 25.47018602 -13.9507667 25.47018602 -9.9375 26.4375 C-5.15216002 26.62155154 -0.65922632 26.20839409 4.0625 25.4375 C4.0625 27.4175 4.0625 29.3975 4.0625 31.4375 C-1.34043437 34.78919626 -7.83057002 33.98064771 -13.9375 33.4375 C-18.37297144 32.26362314 -21.04347198 29.77690429 -23.375 25.875 C-25.84355068 20.13642115 -25.96634892 14.08413021 -24.27734375 8.09765625 C-22.45775405 3.86770097 -20.17174186 1.07155617 -15.9921875 -0.9375 C-10.60564695 -2.57599142 -5.09417885 -2.48785478 0 0 Z M-15.9375 8.4375 C-16.2675 9.7575 -16.5975 11.0775 -16.9375 12.4375 C-11.9875 12.4375 -7.0375 12.4375 -1.9375 12.4375 C-2.42035763 7.619511 -2.42035763 7.619511 -4.75 5.625 C-9.63644451 2.97235869 -12.34180616 4.93898708 -15.9375 8.4375 Z " fill="#000000" transform="translate(1903.9375,45.5625)"/>
<path d="M0 0 C3.72210795 2.96249408 4.78843302 4.8658479 6.0625 9.4375 C6.0625 12.4075 6.0625 15.3775 6.0625 18.4375 C-1.5275 18.4375 -9.1175 18.4375 -16.9375 18.4375 C-13.9507667 25.47018602 -13.9507667 25.47018602 -9.9375 26.4375 C-5.15216002 26.62155154 -0.65922632 26.20839409 4.0625 25.4375 C4.0625 27.4175 4.0625 29.3975 4.0625 31.4375 C-1.34043437 34.78919626 -7.83057002 33.98064771 -13.9375 33.4375 C-18.37297144 32.26362314 -21.04347198 29.77690429 -23.375 25.875 C-25.84355068 20.13642115 -25.96634892 14.08413021 -24.27734375 8.09765625 C-22.45775405 3.86770097 -20.17174186 1.07155617 -15.9921875 -0.9375 C-10.60564695 -2.57599142 -5.09417885 -2.48785478 0 0 Z M-15.9375 8.4375 C-16.2675 9.7575 -16.5975 11.0775 -16.9375 12.4375 C-11.9875 12.4375 -7.0375 12.4375 -1.9375 12.4375 C-2.42035763 7.619511 -2.42035763 7.619511 -4.75 5.625 C-9.63644451 2.97235869 -12.34180616 4.93898708 -15.9375 8.4375 Z " fill="#000000" transform="translate(1628.9375,45.5625)"/>
<path d="M0 0 C3.55589875 3.03297247 6.57877848 6.03306172 7.125 10.8125 C7.125 13.4525 7.125 16.0925 7.125 18.8125 C-0.465 18.8125 -8.055 18.8125 -15.875 18.8125 C-13.53651858 24.72981018 -13.53651858 24.72981018 -9.875 26.8125 C-4.72044283 27.07022786 0.04503172 26.65916138 5.125 25.8125 C5.125 27.7925 5.125 29.7725 5.125 31.8125 C1.41600109 34.1659257 -1.9249068 34.1443354 -6.25 34.1875 C-7.53648438 34.21585938 -8.82296875 34.24421875 -10.1484375 34.2734375 C-15.24291489 33.64330298 -18.32921322 31.57149875 -21.6875 27.75 C-24.99244263 22.35772517 -24.41107724 15.90762483 -23.875 9.8125 C-22.43911152 5.42299635 -19.89691613 2.14780614 -15.875 -0.1875 C-10.69501432 -1.91416189 -5.07750122 -2.09722877 0 0 Z M-14.875 8.8125 C-15.205 10.1325 -15.535 11.4525 -15.875 12.8125 C-10.925 12.8125 -5.975 12.8125 -0.875 12.8125 C-2.18797122 6.82711763 -2.18797122 6.82711763 -5.875 4.8125 C-10.3781697 4.11970466 -12.11861261 5.26857335 -14.875 8.8125 Z " fill="#000000" transform="translate(1495.875,45.1875)"/>
<path d="M0 0 C4.75852474 1.643854 7.19569483 3.84547383 10 8 C12.0509828 14.15294839 11.85171714 21.44484857 9.8125 27.5625 C7.35731164 30.86430503 4.68011621 33.15994189 1 35 C-6.36454575 35.68169543 -12.12580652 35.74934792 -18 31 C-21.74300097 25.01119845 -23.11120421 18.95333404 -21.5390625 11.9453125 C-19.84461095 6.6626106 -17.51623685 4.17097481 -13 1 C-9.06990869 -0.96504566 -4.29364421 -0.33401758 0 0 Z M-11.4375 8.5625 C-14.2601378 12.96581497 -14.33416223 17.23284372 -13.375 22.25 C-12.31558882 26.02779601 -12.31558882 26.02779601 -9.75 28.0625 C-6.33649862 29.22619365 -4.43575671 29.04566509 -1 28 C1.52737004 26.08268479 1.9716847 25.08494591 3 22 C3.52996391 16.55767832 3.49157975 12.46922208 0 8 C-1.21589984 6.56844101 -1.21589984 6.56844101 -4.8125 6.6875 C-7.81731285 6.74134969 -8.83316856 6.89305677 -11.4375 8.5625 Z " fill="#000000" transform="translate(1835,44)"/>
<path d="M0 0 C4.75852474 1.643854 7.19569483 3.84547383 10 8 C12.0509828 14.15294839 11.85171714 21.44484857 9.8125 27.5625 C7.35731164 30.86430503 4.68011621 33.15994189 1 35 C-6.36454575 35.68169543 -12.12580652 35.74934792 -18 31 C-21.74300097 25.01119845 -23.11120421 18.95333404 -21.5390625 11.9453125 C-19.84461095 6.6626106 -17.51623685 4.17097481 -13 1 C-9.06990869 -0.96504566 -4.29364421 -0.33401758 0 0 Z M-11.4375 8.5625 C-14.2601378 12.96581497 -14.33416223 17.23284372 -13.375 22.25 C-12.31558882 26.02779601 -12.31558882 26.02779601 -9.75 28.0625 C-6.33649862 29.22619365 -4.43575671 29.04566509 -1 28 C1.52737004 26.08268479 1.9716847 25.08494591 3 22 C3.52996391 16.55767832 3.49157975 12.46922208 0 8 C-1.21589984 6.56844101 -1.21589984 6.56844101 -4.8125 6.6875 C-7.81731285 6.74134969 -8.83316856 6.89305677 -11.4375 8.5625 Z " fill="#000000" transform="translate(1380,44)"/>
<path d="M0 0 C2.64 0 5.28 0 8 0 C8.01458252 0.74161377 8.02916504 1.48322754 8.04418945 2.24731445 C8.11859457 5.60290631 8.21528006 8.95749494 8.3125 12.3125 C8.33505859 13.47974609 8.35761719 14.64699219 8.38085938 15.84960938 C8.41630859 16.96787109 8.45175781 18.08613281 8.48828125 19.23828125 C8.51446533 20.26993408 8.54064941 21.30158691 8.56762695 22.36450195 C8.80605554 25.01067524 8.80605554 25.01067524 10.30932617 26.86791992 C12.1547566 28.34245023 12.1547566 28.34245023 15.5625 27.875 C19.25442394 27.34366067 19.25442394 27.34366067 21 24 C21.36749389 21.38710506 21.36749389 21.38710506 21.4140625 18.45703125 C21.45273438 17.38388672 21.49140625 16.31074219 21.53125 15.20507812 C21.57765625 13.52575195 21.57765625 13.52575195 21.625 11.8125 C21.66367188 10.68134766 21.70234375 9.55019531 21.7421875 8.38476562 C21.83652533 5.5900075 21.92211652 2.79525722 22 0 C24.64 0 27.28 0 30 0 C30 11.55 30 23.1 30 35 C28.02 35 26.04 35 24 35 C23.34 34.01 22.68 33.02 22 32 C21.46246094 32.48597656 20.92492188 32.97195312 20.37109375 33.47265625 C16.02957658 36.26925133 10.97867514 35.62573513 6 35 C2.32069272 32.90784488 1.3295066 31.98851981 0 28 C-0.0833804 25.86205475 -0.10733747 23.72157991 -0.09765625 21.58203125 C-0.09443359 20.32841797 -0.09121094 19.07480469 -0.08789062 17.78320312 C-0.07951172 16.47287109 -0.07113281 15.16253906 -0.0625 13.8125 C-0.05748317 12.47721519 -0.05292059 11.14192859 -0.04882812 9.80664062 C-0.03702695 6.53771527 -0.02056297 3.26888009 0 0 Z " fill="#000000" transform="translate(1255,44)"/>
<path d="M0 0 C2.31 0 4.62 0 7 0 C7.33 4.62 7.66 9.24 8 14 C9.32 13.34 10.64 12.68 12 12 C16.25259892 11.41422162 19.94939301 11.57528653 23.9375 13.1875 C27.03465349 15.90924094 27.89317474 18.69638719 28.22705078 22.77075195 C28.21657715 23.75003662 28.20610352 24.72932129 28.1953125 25.73828125 C28.18886719 26.80498047 28.18242188 27.87167969 28.17578125 28.97070312 C28.15902344 30.07349609 28.14226562 31.17628906 28.125 32.3125 C28.11597656 33.43462891 28.10695313 34.55675781 28.09765625 35.71289062 C28.07414486 38.47547909 28.04128155 41.23762932 28 44 C25.36 44 22.72 44 20 44 C19.505 32.12 19.505 32.12 19 20 C12.60877717 18.29316476 12.60877717 18.29316476 10.125 20.25 C8.19520856 23.25189779 7.84690524 25.97301713 7.68359375 29.44921875 C7.64169922 30.29677734 7.59980469 31.14433594 7.55664062 32.01757812 C7.51732422 32.89865234 7.47800781 33.77972656 7.4375 34.6875 C7.39431641 35.58017578 7.35113281 36.47285156 7.30664062 37.39257812 C7.20064647 39.59490108 7.09857949 41.79733473 7 44 C4.69 44 2.38 44 0 44 C0 29.48 0 14.96 0 0 Z " fill="#000000" transform="translate(1309,120)"/>
<path d="M0 0 C-0.66 1.98 -1.32 3.96 -2 6 C-3.24716797 5.85691406 -3.24716797 5.85691406 -4.51953125 5.7109375 C-5.60621094 5.60007813 -6.69289063 5.48921875 -7.8125 5.375 C-8.89144531 5.25898438 -9.97039062 5.14296875 -11.08203125 5.0234375 C-14.19624332 4.72539844 -14.19624332 4.72539844 -17 7 C-17.2502157 10.08365871 -17.2502157 10.08365871 -17 13 C-16.195625 13.226875 -15.39125 13.45375 -14.5625 13.6875 C-8.86497901 15.78658668 -3.60344967 17.8777872 0.125 22.8125 C1.23388997 26.85202776 1.4925096 30.03628598 0 34 C-2.49448015 37.02316101 -5.26927356 38.75642452 -9 40 C-10.95566503 40.11979145 -12.91570766 40.17528496 -14.875 40.1875 C-15.90367188 40.20167969 -16.93234375 40.21585938 -17.9921875 40.23046875 C-21.05463488 39.99581369 -23.23248861 39.29184572 -26 38 C-26 35.69 -26 33.38 -26 31 C-25.41992188 31.144375 -24.83984375 31.28875 -24.2421875 31.4375 C-19.77211126 32.49969633 -15.62477532 33.44045479 -11 33 C-10.01 32.34 -9.02 31.68 -8 31 C-7.74969023 28.41619823 -7.74969023 28.41619823 -8 26 C-8.89203125 25.54109375 -9.7840625 25.0821875 -10.703125 24.609375 C-11.88562062 23.98997253 -13.06790098 23.37015901 -14.25 22.75 C-15.41015625 22.14671875 -16.5703125 21.5434375 -17.765625 20.921875 C-20.73882545 19.15519067 -22.82516472 17.66793636 -25 15 C-26.10058519 10.45091456 -26.36279192 8.13105716 -24.9375 3.6875 C-19.26580782 -4.17968593 -8.22393386 -3.55629573 0 0 Z " fill="#000000" transform="translate(1554,124)"/>
<path d="M0 0 C4.16685498 1.89402499 5.62273112 3.33349165 7.875 7.3125 C9 11 9 11 9 18 C2.07 18 -4.86 18 -12 18 C-9.83333333 23.83333333 -9.83333333 23.83333333 -7 25 C-2.26055347 25.31658385 2.38447404 25.19110347 7 24 C7 25.98 7 27.96 7 30 C1.98526475 32.99208547 -3.34076695 32.59258985 -9 32 C-12.96049247 30.78138693 -15.38214354 28.79723415 -17.9375 25.5 C-19.85506136 19.18332727 -19.89721119 12.79132372 -17.875 6.5 C-13.05062755 0.0675034 -7.67229407 -1.21010167 0 0 Z M-9.9375 7.3125 C-11.26640663 9.09076108 -11.26640663 9.09076108 -11 12 C-7.04 12 -3.08 12 1 12 C0.5547002 7.36980013 0.5547002 7.36980013 -1 6 C-5.72489569 5.53350284 -5.72489569 5.53350284 -9.9375 7.3125 Z " fill="#000000" transform="translate(1710,132)"/>
<path d="M0 0 C2.72712873 2.47920794 3.83318416 4.38115498 5.0625 7.875 C5.0625 10.845 5.0625 13.815 5.0625 16.875 C-1.5375 16.875 -8.1375 16.875 -14.9375 16.875 C-13.28672098 20.62670424 -13.28672098 20.62670424 -10.9375 23.875 C-5.89988984 24.19218286 -0.83788887 24.18177037 4.0625 22.875 C4.0625 24.855 4.0625 26.835 4.0625 28.875 C-1.55921352 31.45376767 -6.84425276 31.55202747 -12.9375 30.875 C-17.48657036 28.64036895 -20.74659213 25.90640185 -22.625 21.125 C-23.55079474 14.45927784 -23.16864736 9.87570224 -19.9375 3.875 C-14.87324373 -2.13880431 -7.17412029 -2.74753543 0 0 Z M-13.875 6.75 C-15.0865712 8.77717203 -15.0865712 8.77717203 -14.9375 10.875 C-10.6475 10.875 -6.3575 10.875 -1.9375 10.875 C-3.39038986 6.2908037 -3.39038986 6.2908037 -4.9375 4.875 C-9.887798 4.25559334 -9.887798 4.25559334 -13.875 6.75 Z " fill="#000000" transform="translate(1887.9375,133.125)"/>
<path d="M0 0 C2.72712873 2.47920794 3.83318416 4.38115498 5.0625 7.875 C5.0625 10.845 5.0625 13.815 5.0625 16.875 C-1.5375 16.875 -8.1375 16.875 -14.9375 16.875 C-13.28672098 20.62670424 -13.28672098 20.62670424 -10.9375 23.875 C-5.89988984 24.19218286 -0.83788887 24.18177037 4.0625 22.875 C4.0625 24.855 4.0625 26.835 4.0625 28.875 C-1.55921352 31.45376767 -6.84425276 31.55202747 -12.9375 30.875 C-17.48657036 28.64036895 -20.74659213 25.90640185 -22.625 21.125 C-23.55079474 14.45927784 -23.16864736 9.87570224 -19.9375 3.875 C-14.87324373 -2.13880431 -7.17412029 -2.74753543 0 0 Z M-13.875 6.75 C-15.0865712 8.77717203 -15.0865712 8.77717203 -14.9375 10.875 C-10.6475 10.875 -6.3575 10.875 -1.9375 10.875 C-3.39038986 6.2908037 -3.39038986 6.2908037 -4.9375 4.875 C-9.887798 4.25559334 -9.887798 4.25559334 -13.875 6.75 Z " fill="#000000" transform="translate(1796.9375,133.125)"/>
<path d="M0 0 C2.72712873 2.47920794 3.83318416 4.38115498 5.0625 7.875 C5.0625 10.845 5.0625 13.815 5.0625 16.875 C-1.5375 16.875 -8.1375 16.875 -14.9375 16.875 C-13.28672098 20.62670424 -13.28672098 20.62670424 -10.9375 23.875 C-5.89988984 24.19218286 -0.83788887 24.18177037 4.0625 22.875 C4.0625 24.855 4.0625 26.835 4.0625 28.875 C-1.55921352 31.45376767 -6.84425276 31.55202747 -12.9375 30.875 C-17.48657036 28.64036895 -20.74659213 25.90640185 -22.625 21.125 C-23.55079474 14.45927784 -23.16864736 9.87570224 -19.9375 3.875 C-14.87324373 -2.13880431 -7.17412029 -2.74753543 0 0 Z M-13.875 6.75 C-15.0865712 8.77717203 -15.0865712 8.77717203 -14.9375 10.875 C-10.6475 10.875 -6.3575 10.875 -1.9375 10.875 C-3.39038986 6.2908037 -3.39038986 6.2908037 -4.9375 4.875 C-9.887798 4.25559334 -9.887798 4.25559334 -13.875 6.75 Z " fill="#000000" transform="translate(1581.9375,133.125)"/>
<path d="M0 0 C2.72712873 2.47920794 3.83318416 4.38115498 5.0625 7.875 C5.0625 10.845 5.0625 13.815 5.0625 16.875 C-1.5375 16.875 -8.1375 16.875 -14.9375 16.875 C-13.28672098 20.62670424 -13.28672098 20.62670424 -10.9375 23.875 C-5.89988984 24.19218286 -0.83788887 24.18177037 4.0625 22.875 C4.0625 24.855 4.0625 26.835 4.0625 28.875 C-1.55921352 31.45376767 -6.84425276 31.55202747 -12.9375 30.875 C-17.48657036 28.64036895 -20.74659213 25.90640185 -22.625 21.125 C-23.55079474 14.45927784 -23.16864736 9.87570224 -19.9375 3.875 C-14.87324373 -2.13880431 -7.17412029 -2.74753543 0 0 Z M-13.875 6.75 C-15.0865712 8.77717203 -15.0865712 8.77717203 -14.9375 10.875 C-10.6475 10.875 -6.3575 10.875 -1.9375 10.875 C-3.39038986 6.2908037 -3.39038986 6.2908037 -4.9375 4.875 C-9.887798 4.25559334 -9.887798 4.25559334 -13.875 6.75 Z " fill="#000000" transform="translate(1467.9375,133.125)"/>
<path d="M0 0 C3.99416734 3.40678979 6.78354056 6.66099728 7.36328125 12.01171875 C7.54516718 18.10968376 6.91498033 22.87368188 3.125 27.8125 C-1.11328418 31.0416689 -5.29362808 31.33151701 -10.47265625 31.16796875 C-15.0000722 30.49805842 -17.70293841 28.10580934 -20.6875 24.8125 C-23.27193978 20.45975932 -23.39609289 15.79079812 -22.875 10.8125 C-21.33145327 6.18185981 -19.68678471 2.90957508 -15.875 -0.1875 C-10.69501432 -1.91416189 -5.07750122 -2.09722877 0 0 Z M-13.25 6.6875 C-15.54910686 11.10885935 -15.66013667 14.92542481 -14.875 19.8125 C-13.47808883 23.02118551 -13.47808883 23.02118551 -10.875 24.8125 C-7.875 25.5625 -7.875 25.5625 -4.875 24.8125 C-2.06156069 22.64635561 -0.99588103 21.46667968 -0.34375 17.9375 C-0.3540625 16.90625 -0.364375 15.875 -0.375 14.8125 C-0.3646875 13.78125 -0.354375 12.75 -0.34375 11.6875 C-0.99588103 8.15832032 -2.06156069 6.97864439 -4.875 4.8125 C-8.70514897 4.09434707 -10.17423814 4.25926695 -13.25 6.6875 Z " fill="#000000" transform="translate(1365.875,133.1875)"/>
<path d="M0 0 C2.64 0 5.28 0 8 0 C8.33 7.92 8.66 15.84 9 24 C15.61430493 25.73870411 15.61430493 25.73870411 19 23 C20.01810722 20.19322542 20.17606183 17.42040705 20.31640625 14.453125 C20.35830078 13.60878906 20.40019531 12.76445312 20.44335938 11.89453125 C20.48267578 11.02183594 20.52199219 10.14914063 20.5625 9.25 C20.60568359 8.36183594 20.64886719 7.47367188 20.69335938 6.55859375 C20.79913615 4.37254037 20.90122546 2.18637911 21 0 C23.31 0 25.62 0 28 0 C28 10.56 28 21.12 28 32 C26.02 32 24.04 32 22 32 C22 31.01 22 30.02 22 29 C21.195625 29.495 20.39125 29.99 19.5625 30.5 C14.21904043 32.74987771 9.47195473 32.99930085 4.0625 30.8125 C0.96534651 28.09075906 0.10682526 25.30361281 -0.22705078 21.22924805 C-0.21657715 20.24996338 -0.20610352 19.27067871 -0.1953125 18.26171875 C-0.18886719 17.19501953 -0.18242188 16.12832031 -0.17578125 15.02929688 C-0.15902344 13.92650391 -0.14226562 12.82371094 -0.125 11.6875 C-0.11597656 10.56537109 -0.10695313 9.44324219 -0.09765625 8.28710938 C-0.07414486 5.52452091 -0.04128155 2.76237068 0 0 Z " fill="#000000" transform="translate(1250,132)"/>
<path d="M0 0 C-0.75 4.75 -0.75 4.75 -3 7 C-3.825 6.649375 -4.65 6.29875 -5.5 5.9375 C-10.67532465 4.55125233 -14.89760629 5.2992021 -20 7 C-23.0464605 13.09292099 -23.6846183 19.44294723 -22 26 C-20.64950032 29.17367425 -19.86290191 30.54462243 -16.81640625 32.15234375 C-13.37597548 33.18781321 -10.75242125 32.98509306 -7.1875 32.625 C-6.02605469 32.51414063 -4.86460938 32.40328125 -3.66796875 32.2890625 C-2.78753906 32.19367188 -1.90710937 32.09828125 -1 32 C-1 33.98 -1 35.96 -1 38 C-6.22335057 41.16950884 -12.10414604 40.56352248 -18 40 C-22.73704971 38.69117622 -25.34248649 36.80924739 -28.4375 33 C-32.07178273 26.02217717 -32.36587275 17.03421669 -30.31640625 9.48046875 C-28.15712413 4.79455777 -25.19213655 1.94341503 -21 -1 C-14.41053892 -3.19648703 -6.34195101 -2.81864489 0 0 Z " fill="#000000" transform="translate(1770,124)"/>
<path d="M0 0 C8.25 0 16.5 0 25 0 C25 6.74996167 25 6.74996167 22.26171875 10.3828125 C21.68873047 11.15753906 21.11574219 11.93226562 20.52539062 12.73046875 C19.91888672 13.52066406 19.31238281 14.31085937 18.6875 15.125 C17.79514648 16.32189453 17.79514648 16.32189453 16.88476562 17.54296875 C15.2692761 19.7053782 13.63689093 21.85377885 12 24 C11.01 25.32 10.02 26.64 9 28 C14.28 28.33 19.56 28.66 25 29 C25 30.98 25 32.96 25 35 C16.09 35 7.18 35 -2 35 C-0.87489534 27.12426735 -0.87489534 27.12426735 2.125 23.1953125 C2.74890625 22.36515625 3.3728125 21.535 4.015625 20.6796875 C4.67046875 19.83664063 5.3253125 18.99359375 6 18.125 C6.65484375 17.25875 7.3096875 16.3925 7.984375 15.5 C12.64955357 9.35044643 12.64955357 9.35044643 14 8 C7.07 7.505 7.07 7.505 0 7 C0 4.69 0 2.38 0 0 Z " fill="#000000" transform="translate(1442,44)"/>
<path d="M0 0 C1.65 0 3.3 0 5 0 C5.66 0.99 6.32 1.98 7 3 C7.55816406 2.51402344 8.11632813 2.02804688 8.69140625 1.52734375 C12.54750179 -1.02381252 16.53440759 -0.67200663 21 0 C23.93423195 1.79646854 25.47205355 2.9441071 27 6 C27.08510205 7.9593604 27.10717656 9.92162794 27.09765625 11.8828125 C27.09443359 13.04941406 27.09121094 14.21601563 27.08789062 15.41796875 C27.07951172 16.64128906 27.07113281 17.86460937 27.0625 19.125 C27.05798828 20.35605469 27.05347656 21.58710938 27.04882812 22.85546875 C27.0370133 25.90369392 27.02054028 28.95182314 27 32 C24.69 32 22.38 32 20 32 C19.98018066 31.34926514 19.96036133 30.69853027 19.93994141 30.02807617 C19.84470701 27.08080849 19.73502182 24.13425115 19.625 21.1875 C19.5940625 20.16333984 19.563125 19.13917969 19.53125 18.08398438 C19.49257812 17.10107422 19.45390625 16.11816406 19.4140625 15.10546875 C19.36693115 13.74651489 19.36693115 13.74651489 19.31884766 12.36010742 C19.13972081 9.73474608 19.13972081 9.73474608 17 7 C14.04253508 6.41654524 14.04253508 6.41654524 11 7 C8.21071655 9.88407887 7.60879648 12.0314756 7.48828125 15.984375 C7.45283203 16.91894531 7.41738281 17.85351562 7.38085938 18.81640625 C7.35830078 19.78449219 7.33574219 20.75257813 7.3125 21.75 C7.27833984 22.73355469 7.24417969 23.71710938 7.20898438 24.73046875 C7.12664727 27.15353199 7.05745162 29.57623998 7 32 C4.69 32 2.38 32 0 32 C0 21.44 0 10.88 0 0 Z " fill="#000000" transform="translate(1809,132)"/>
<path d="M0 0 C1.65 0 3.3 0 5 0 C5 2.31 5 4.62 5 7 C8.3 7 11.6 7 15 7 C15 9.31 15 11.62 15 14 C11.7 14 8.4 14 5 14 C5.33 20.93 5.66 27.86 6 35 C8.97 35 11.94 35 15 35 C15.04254356 36.99954746 15.04080783 39.00041636 15 41 C13.20207025 42.79792975 10.61614796 42.25670277 8.1875 42.3125 C7.12917969 42.34988281 6.07085938 42.38726562 4.98046875 42.42578125 C1.33361833 41.90480262 0.2584367 40.83752304 -2 38 C-3.25248502 35.49502996 -3.11374406 33.79146726 -3.09765625 30.9921875 C-3.09443359 30.00605469 -3.09121094 29.01992187 -3.08789062 28.00390625 C-3.07951172 26.97136719 -3.07113281 25.93882813 -3.0625 24.875 C-3.05798828 23.83472656 -3.05347656 22.79445313 -3.04882812 21.72265625 C-3.03701952 19.14838038 -3.02055075 16.57421854 -3 14 C-4.65 14 -6.3 14 -8 14 C-7.75 11.625 -7.75 11.625 -7 9 C-6.38125 8.71125 -5.7625 8.4225 -5.125 8.125 C-1.75103937 6.33878555 -1.29903581 3.50739668 0 0 Z " fill="#000000" transform="translate(1794,37)"/>
<path d="M0 0 C1.65 0 3.3 0 5 0 C5 2.31 5 4.62 5 7 C8.3 7 11.6 7 15 7 C15 9.31 15 11.62 15 14 C11.7 14 8.4 14 5 14 C5.33 20.93 5.66 27.86 6 35 C8.97 35 11.94 35 15 35 C15.04254356 36.99954746 15.04080783 39.00041636 15 41 C13.20207025 42.79792975 10.61614796 42.25670277 8.1875 42.3125 C7.12917969 42.34988281 6.07085938 42.38726562 4.98046875 42.42578125 C1.33361833 41.90480262 0.2584367 40.83752304 -2 38 C-3.25248502 35.49502996 -3.11374406 33.79146726 -3.09765625 30.9921875 C-3.09443359 30.00605469 -3.09121094 29.01992187 -3.08789062 28.00390625 C-3.07951172 26.97136719 -3.07113281 25.93882813 -3.0625 24.875 C-3.05798828 23.83472656 -3.05347656 22.79445313 -3.04882812 21.72265625 C-3.03701952 19.14838038 -3.02055075 16.57421854 -3 14 C-4.65 14 -6.3 14 -8 14 C-7.75 11.625 -7.75 11.625 -7 9 C-6.38125 8.71125 -5.7625 8.4225 -5.125 8.125 C-1.75103937 6.33878555 -1.29903581 3.50739668 0 0 Z " fill="#000000" transform="translate(1299,37)"/>
<path d="M0 0 C1.65 0 3.3 0 5 0 C5 2.31 5 4.62 5 7 C8.3 7 11.6 7 15 7 C15 9.31 15 11.62 15 14 C11.7 14 8.4 14 5 14 C5.11355702 17.1258064 5.24030583 20.25009525 5.375 23.375 C5.4059375 24.26445313 5.436875 25.15390625 5.46875 26.0703125 C5.50742188 26.92109375 5.54609375 27.771875 5.5859375 28.6484375 C5.6173584 29.43395996 5.6487793 30.21948242 5.68115234 31.02880859 C5.8399465 33.23002939 5.8399465 33.23002939 8 35 C11.58343976 35.16677282 11.58343976 35.16677282 15 35 C15.04254356 36.99954746 15.04080783 39.00041636 15 41 C13.20207025 42.79792975 10.61614796 42.25670277 8.1875 42.3125 C7.12917969 42.34988281 6.07085938 42.38726562 4.98046875 42.42578125 C1.31728043 41.90246863 0.23303577 40.88889243 -2 38 C-2.98043964 35.05868109 -3.11621202 33.17498335 -3.09765625 30.11328125 C-3.09443359 29.17548828 -3.09121094 28.23769531 -3.08789062 27.27148438 C-3.07951172 26.29501953 -3.07113281 25.31855469 -3.0625 24.3125 C-3.05798828 23.32443359 -3.05347656 22.33636719 -3.04882812 21.31835938 C-3.03704303 18.87884526 -3.02059011 16.43945311 -3 14 C-4.32 14 -5.64 14 -7 14 C-7 12.35 -7 10.7 -7 9 C-6.401875 8.814375 -5.80375 8.62875 -5.1875 8.4375 C-1.90018201 6.27726247 -1.35145313 3.64892345 0 0 Z " fill="#000000" transform="translate(1646,37)"/>
<path d="M0 0 C2.31 0 4.62 0 7 0 C7.77512547 1.8106686 8.54484187 3.62365291 9.3125 5.4375 C9.74175781 6.44683594 10.17101563 7.45617187 10.61328125 8.49609375 C12.23871298 12.60317054 13.60321411 16.80964234 15 21 C17.64 14.07 20.28 7.14 23 0 C25.64 0 28.28 0 31 0 C28.8290395 6.72748934 26.40708234 13.33831838 23.875 19.9375 C23.51535156 20.88173828 23.15570312 21.82597656 22.78515625 22.79882812 C20.1381079 29.72378419 20.1381079 29.72378419 19 32 C16.36 32 13.72 32 11 32 C9.4270566 27.92730877 7.86066424 23.85217757 6.30029297 19.7746582 C5.76855937 18.38790087 5.23504198 17.00182615 4.69970703 15.61645508 C3.93051643 13.62497922 3.16777516 11.63113631 2.40625 9.63671875 C1.71499023 7.83787231 1.71499023 7.83787231 1.00976562 6.00268555 C0 3 0 3 0 0 Z " fill="#000000" transform="translate(1614,132)"/>
<path d="M0 0 C7.59 0 15.18 0 23 0 C23 6.75063613 23 6.75063613 20.19140625 10.48828125 C19.60939453 11.27654297 19.02738281 12.06480469 18.42773438 12.87695312 C17.81220703 13.68068359 17.19667969 14.48441406 16.5625 15.3125 C15.64500977 16.54709961 15.64500977 16.54709961 14.70898438 17.80664062 C10.34742796 23.65257204 10.34742796 23.65257204 9 25 C15.93 25.495 15.93 25.495 23 26 C23 27.98 23 29.96 23 32 C15.08 32 7.16 32 -1 32 C0.125 24.125 0.125 24.125 2.94140625 20.37890625 C3.52470703 19.58935547 4.10800781 18.79980469 4.70898438 17.98632812 C5.32064453 17.18646484 5.93230469 16.38660156 6.5625 15.5625 C7.17802734 14.73556641 7.79355469 13.90863281 8.42773438 13.05664062 C9.93984391 11.0287728 11.46831961 9.01312652 13 7 C8.71 6.67 4.42 6.34 0 6 C0 4.02 0 2.04 0 0 Z " fill="#000000" transform="translate(1418,132)"/>
<path d="M0 0 C2.64 0 5.28 0 8 0 C8 16.17 8 32.34 8 49 C5.36 49 2.72 49 0 49 C0 32.83 0 16.66 0 0 Z " fill="#000000" transform="translate(1722,30)"/>
<path d="M0 0 C1.43472656 -0.02126953 1.43472656 -0.02126953 2.8984375 -0.04296875 C5.65510017 0.19004428 7.27447395 0.77829836 9.625 2.1875 C8.965 4.1675 8.305 6.1475 7.625 8.1875 C6.59439453 8.04441406 6.59439453 8.04441406 5.54296875 7.8984375 C4.64191406 7.78757813 3.74085937 7.67671875 2.8125 7.5625 C1.91917969 7.44648438 1.02585937 7.33046875 0.10546875 7.2109375 C-2.63190391 6.95249257 -2.63190391 6.95249257 -5.375 9.1875 C-6.86804497 13.6666349 -7.09576325 18.17965951 -5.5 22.625 C-4.44425899 24.34643274 -4.44425899 24.34643274 -2.375 25.1875 C-0.49637125 25.10005632 1.37955181 24.94574458 3.25 24.75 C4.25289062 24.64816406 5.25578125 24.54632813 6.2890625 24.44140625 C7.44535156 24.31572266 7.44535156 24.31572266 8.625 24.1875 C8.8125 27.0625 8.8125 27.0625 8.625 30.1875 C4.1508998 33.17023347 -0.12938601 32.66778511 -5.375 32.1875 C-9.00049297 30.95742203 -10.72438333 29.95029195 -13.1875 27.0625 C-15.73975251 20.88336236 -15.88368957 14.66315816 -14.24609375 8.203125 C-11.64647953 2.18787416 -6.14712219 0.04120055 0 0 Z " fill="#000000" transform="translate(1677.375,131.8125)"/>
<path d="M0 0 C1.98 0 3.96 0 6 0 C6.66 1.32 7.32 2.64 8 4 C8.66 3.34 9.32 2.68 10 2 C14.01858853 -0.67905902 16.25305716 -0.32182663 21 0 C21 2.64 21 5.28 21 8 C19.046875 8.13020833 17.09375 8.26041667 15.140625 8.390625 C11.89917007 9.31337494 10.90483218 10.15946078 9 13 C8.36213558 16.74305575 8.30291869 20.45909758 8.25 24.25 C8.22035156 25.28125 8.19070313 26.3125 8.16015625 27.375 C8.08955222 29.91674495 8.03680991 32.45757783 8 35 C5.36 35 2.72 35 0 35 C0 23.45 0 11.9 0 0 Z " fill="#000000" transform="translate(1854,44)"/>
<path d="M0 0 C1.98 0 3.96 0 6 0 C6.66 1.32 7.32 2.64 8 4 C8.66 3.34 9.32 2.68 10 2 C14.01858853 -0.67905902 16.25305716 -0.32182663 21 0 C21 2.64 21 5.28 21 8 C19.046875 8.13020833 17.09375 8.26041667 15.140625 8.390625 C11.89917007 9.31337494 10.90483218 10.15946078 9 13 C8.36213558 16.74305575 8.30291869 20.45909758 8.25 24.25 C8.22035156 25.28125 8.19070313 26.3125 8.16015625 27.375 C8.08955222 29.91674495 8.03680991 32.45757783 8 35 C5.36 35 2.72 35 0 35 C0 23.45 0 11.9 0 0 Z " fill="#000000" transform="translate(1399,44)"/>
<path d="M0 0 C1.65 0 3.3 0 5 0 C5 1.98 5 3.96 5 6 C7.97 6 10.94 6 14 6 C14 7.98 14 9.96 14 12 C11.03 12 8.06 12 5 12 C5.14086602 14.60452271 5.28748464 17.20850197 5.4375 19.8125 C5.47681641 20.55048828 5.51613281 21.28847656 5.55664062 22.04882812 C5.74381035 25.23071342 5.98720793 27.96162378 7 31 C9.31 31 11.62 31 14 31 C14.04254356 32.99954746 14.04080783 35.00041636 14 37 C12.35034831 38.64965169 10.4523645 38.24949498 8.1875 38.3125 C3.38015448 38.27816182 3.38015448 38.27816182 0.4375 36.125 C-1.71363606 32.94505973 -2.12173295 31.2338059 -2.09765625 27.4296875 C-2.09282227 26.08583984 -2.09282227 26.08583984 -2.08789062 24.71484375 C-2.07951172 23.77769531 -2.07113281 22.84054688 -2.0625 21.875 C-2.05798828 20.93011719 -2.05347656 19.98523438 -2.04882812 19.01171875 C-2.03702357 16.67441613 -2.02055759 14.33723939 -2 12 C-3.32 12 -4.64 12 -6 12 C-6 10.68 -6 9.36 -6 8 C-5.38125 7.79375 -4.7625 7.5875 -4.125 7.375 C-1.15346355 5.45224112 -0.86975341 3.33405473 0 0 Z " fill="#000000" transform="translate(1847,126)"/>
<path d="M0 0 C1.65 0 3.3 0 5 0 C5 1.98 5 3.96 5 6 C7.97 6 10.94 6 14 6 C14 7.98 14 9.96 14 12 C11.03 12 8.06 12 5 12 C5.14086602 14.60452271 5.28748464 17.20850197 5.4375 19.8125 C5.47681641 20.55048828 5.51613281 21.28847656 5.55664062 22.04882812 C5.74381035 25.23071342 5.98720793 27.96162378 7 31 C9.31 31 11.62 31 14 31 C14.04254356 32.99954746 14.04080783 35.00041636 14 37 C12.35034831 38.64965169 10.4523645 38.24949498 8.1875 38.3125 C3.38015448 38.27816182 3.38015448 38.27816182 0.4375 36.125 C-1.71363606 32.94505973 -2.12173295 31.2338059 -2.09765625 27.4296875 C-2.09282227 26.08583984 -2.09282227 26.08583984 -2.08789062 24.71484375 C-2.07951172 23.77769531 -2.07113281 22.84054688 -2.0625 21.875 C-2.05798828 20.93011719 -2.05347656 19.98523438 -2.04882812 19.01171875 C-2.03702357 16.67441613 -2.02055759 14.33723939 -2 12 C-3.32 12 -4.64 12 -6 12 C-6 10.68 -6 9.36 -6 8 C-5.38125 7.79375 -4.7625 7.5875 -4.125 7.375 C-1.15346355 5.45224112 -0.86975341 3.33405473 0 0 Z " fill="#000000" transform="translate(1289,126)"/>
<path d="M0 0 C1.98 0 3.96 0 6 0 C6.33 1.32 6.66 2.64 7 4 C7.680625 3.34 8.36125 2.68 9.0625 2 C12.64457375 -0.43885872 14.75519536 -0.33292585 19 0 C19 2.31 19 4.62 19 7 C18.37351562 7.09796875 17.74703125 7.1959375 17.1015625 7.296875 C15.87566406 7.52117187 15.87566406 7.52117187 14.625 7.75 C13.81289062 7.88921875 13.00078125 8.0284375 12.1640625 8.171875 C9.88045347 8.79721053 9.88045347 8.79721053 8.890625 10.76757812 C7.93692505 13.15810234 7.68988064 14.98294427 7.5859375 17.546875 C7.54726562 18.39121094 7.50859375 19.23554688 7.46875 20.10546875 C7.42234375 21.41451172 7.42234375 21.41451172 7.375 22.75 C7.33632812 23.63816406 7.29765625 24.52632812 7.2578125 25.44140625 C7.16379127 27.6273998 7.07813857 29.81339062 7 32 C4.69 32 2.38 32 0 32 C0 21.44 0 10.88 0 0 Z " fill="#000000" transform="translate(1900,132)"/>
<path d="M0 0 C1.98 0 3.96 0 6 0 C6.33 1.32 6.66 2.64 7 4 C7.680625 3.34 8.36125 2.68 9.0625 2 C12.64457375 -0.43885872 14.75519536 -0.33292585 19 0 C19 2.31 19 4.62 19 7 C18.37351562 7.09796875 17.74703125 7.1959375 17.1015625 7.296875 C15.87566406 7.52117187 15.87566406 7.52117187 14.625 7.75 C13.81289062 7.88921875 13.00078125 8.0284375 12.1640625 8.171875 C9.88045347 8.79721053 9.88045347 8.79721053 8.890625 10.76757812 C7.93692505 13.15810234 7.68988064 14.98294427 7.5859375 17.546875 C7.54726562 18.39121094 7.50859375 19.23554688 7.46875 20.10546875 C7.42234375 21.41451172 7.42234375 21.41451172 7.375 22.75 C7.33632812 23.63816406 7.29765625 24.52632812 7.2578125 25.44140625 C7.16379127 27.6273998 7.07813857 29.81339062 7 32 C4.69 32 2.38 32 0 32 C0 21.44 0 10.88 0 0 Z " fill="#000000" transform="translate(1594,132)"/>
<path d="M0 0 C1.65 0 3.3 0 5 0 C5.66 0.99 6.32 1.98 7 3 C7.680625 2.505 8.36125 2.01 9.0625 1.5 C12.59465009 -0.30365111 15.08636991 -0.23021353 19 0 C19 2.31 19 4.62 19 7 C18.06027344 7.16435547 18.06027344 7.16435547 17.1015625 7.33203125 C15.87566406 7.56986328 15.87566406 7.56986328 14.625 7.8125 C13.40683594 8.03873047 13.40683594 8.03873047 12.1640625 8.26953125 C9.64179359 8.87544942 9.64179359 8.87544942 8 12 C7.6349209 14.22131423 7.6349209 14.22131423 7.5859375 16.66796875 C7.54726562 17.56064453 7.50859375 18.45332031 7.46875 19.37304688 C7.4378125 20.30181641 7.406875 21.23058594 7.375 22.1875 C7.33632812 23.12787109 7.29765625 24.06824219 7.2578125 25.03710938 C7.16356813 27.3578771 7.07795975 29.67863748 7 32 C4.69 32 2.38 32 0 32 C0 21.44 0 10.88 0 0 Z " fill="#000000" transform="translate(1380,132)"/>
<path d="M0 0 C2.64 0 5.28 0 8 0 C8 11.55 8 23.1 8 35 C5.36 35 2.72 35 0 35 C0 23.45 0 11.9 0 0 Z " fill="#000000" transform="translate(1704,44)"/>
<path d="M0 0 C2.64 0 5.28 0 8 0 C8 11.55 8 23.1 8 35 C5.36 35 2.72 35 0 35 C0 23.45 0 11.9 0 0 Z " fill="#000000" transform="translate(1426,44)"/>
<path d="M0 0 C2.31 0 4.62 0 7 0 C7 10.56 7 21.12 7 32 C4.69 32 2.38 32 0 32 C0 21.44 0 10.88 0 0 Z " fill="#000000" transform="translate(1649,132)"/>
<path d="M0 0 C2.31 0 4.62 0 7 0 C7 10.56 7 21.12 7 32 C4.69 32 2.38 32 0 32 C0 21.44 0 10.88 0 0 Z " fill="#000000" transform="translate(1404,132)"/>
<path d="M0 0 C0.763125 0.20625 1.52625 0.4125 2.3125 0.625 C2.9375 2.9375 2.9375 2.9375 3.3125 5.625 C2.3225 7.11 2.3225 7.11 1.3125 8.625 C-1.75 8.875 -1.75 8.875 -4.6875 8.625 C-5.6875 7.625 -5.6875 7.625 -5.9375 4.6875 C-5.855 3.676875 -5.7725 2.66625 -5.6875 1.625 C-2.6875 -0.375 -2.6875 -0.375 0 0 Z " fill="#000000" transform="translate(1709.6875,31.375)"/>
<path d="M0 0 C0.763125 0.20625 1.52625 0.4125 2.3125 0.625 C2.9375 2.9375 2.9375 2.9375 3.3125 5.625 C2.3225 7.11 2.3225 7.11 1.3125 8.625 C-1.75 8.875 -1.75 8.875 -4.6875 8.625 C-5.6875 7.625 -5.6875 7.625 -5.9375 4.6875 C-5.855 3.676875 -5.7725 2.66625 -5.6875 1.625 C-2.6875 -0.375 -2.6875 -0.375 0 0 Z " fill="#000000" transform="translate(1431.6875,31.375)"/>
<path d="M0 0 C3 0.125 3 0.125 4 1.125 C4.04080783 3.12458364 4.04254356 5.12545254 4 7.125 C1.6875 7.75 1.6875 7.75 -1 8.125 C-1.99 7.465 -2.98 6.805 -4 6.125 C-4.25 3.5625 -4.25 3.5625 -4 1.125 C-3 0.125 -3 0.125 0 0 Z " fill="#000000" transform="translate(1652,120.875)"/>
<path d="M0 0 C1.4540625 0.0309375 1.4540625 0.0309375 2.9375 0.0625 C3.2675 2.0425 3.5975 4.0225 3.9375 6.0625 C0.9375 8.0625 0.9375 8.0625 -1.75 7.6875 C-2.513125 7.48125 -3.27625 7.275 -4.0625 7.0625 C-4.10504356 5.06295254 -4.10330783 3.06208364 -4.0625 1.0625 C-3.0625 0.0625 -3.0625 0.0625 0 0 Z " fill="#000000" transform="translate(1408.0625,120.9375)"/>
</svg>
